#N canvas 429 450 1031 618 10;
#X obj -57 466 dac~;
#X obj -54 242 s gran.numStreams;
#X obj -57 420 catch~ granOutput;
#N canvas 0 22 450 300 (subpatch) 0;
#X array granBuff 535590 float 2;
#X coords 0 1 535590 -1 200 140 1;
#X restore 327 302 graph;
#X obj -55 285 wavGran 1;
#X obj 35 285 wavGran 2;
#X obj 125 285 wavGran 3;
#X obj 215 285 wavGran 4;
#X obj 215 305 wavGran 8;
#X obj 215 325 wavGran 12;
#X obj 215 345 wavGran 16;
#X obj 125 345 wavGran 15;
#X obj 125 325 wavGran 11;
#X obj 125 305 wavGran 7;
#X obj 35 305 wavGran 6;
#X obj 35 325 wavGran 10;
#X obj 35 345 wavGran 14;
#X obj -55 345 wavGran 13;
#X obj -55 325 wavGran 9;
#X obj -55 305 wavGran 5;
#X obj -7 197 loadbang;
#X msg -7 219 16;
#X obj 621 144 loadbang;
#X obj 615 27 loadbang;
#X obj 651 422 s gran.buffpos.min;
#X obj 651 472 s gran.buffpos.max;
#X obj 632 378 loadbang;
#X obj 645 352 s gran.speed.max;
#X msg 645 286 0.9;
#X obj 645 308 s gran.speed.min;
#X msg 645 330 1.1;
#X obj 626 261 loadbang;
#X obj 754 38 loadbang;
#X obj 773 82 s gran.density;
#X obj 634 74 s gran.attack.min;
#X obj 634 118 s gran.attack.max;
#X msg 634 52 1;
#X msg 634 96 100;
#X msg 640 167 1;
#X msg 640 216 100;
#X obj 640 188 s gran.decay.min;
#X obj 640 238 s gran.decay.max;
#X msg 651 450 0.6;
#X msg 651 401 0.3;
#X obj -57 443 *~ 1;
#X obj 349 115 soundfiler;
#X obj 349 137 s granBuffLength;
#X msg 348 96 read -resize door.wav granBuff;
#X msg 773 61 100;
#X obj 347 61 loadbang;
#X obj 412 496 metro 100;
#X obj 329 472 loadbang;
#X msg 413 468 1;
#X obj 390 518 randgen 0 1000;
#X obj 217 498 osc~;
#X connect 2 0 44 0;
#X connect 20 0 21 0;
#X connect 21 0 1 0;
#X connect 22 0 38 0;
#X connect 22 0 39 0;
#X connect 23 0 36 0;
#X connect 23 0 37 0;
#X connect 26 0 43 0;
#X connect 26 0 42 0;
#X connect 28 0 29 0;
#X connect 30 0 27 0;
#X connect 31 0 28 0;
#X connect 31 0 30 0;
#X connect 32 0 48 0;
#X connect 36 0 34 0;
#X connect 37 0 35 0;
#X connect 38 0 40 0;
#X connect 39 0 41 0;
#X connect 42 0 25 0;
#X connect 43 0 24 0;
#X connect 44 0 0 0;
#X connect 44 0 0 1;
#X connect 45 0 46 0;
#X connect 47 0 45 0;
#X connect 48 0 33 0;
#X connect 49 0 47 0;
#X connect 50 0 53 0;
#X connect 51 0 52 0;
#X connect 52 0 50 0;
#X connect 53 0 54 0;
#X connect 54 0 44 0;
