#N canvas 493 412 460 453 10;
#X obj 113 180 delread~ \$0-wg;
#X obj 142 271 s~ \$0-fb;
#X obj 129 115 r~ \$0-fb;
#X obj 273 98 loadbang;
#X obj 273 139 / 100;
#X obj 113 20 r~ excitation;
#X obj 333 90 r resetFreqs;
#X obj 273 118 randgen 1 500;
#X obj 226 189 r fb;
#X obj 226 227 r co;
#X obj 313 233 random 1000;
#X obj 128 342 *~;
#X obj 112 382 throw~ outputL;
#X obj 208 381 throw~ outputR;
#X obj 208 342 *~;
#X obj 311 261 / 1000;
#X msg 249 276 1 \$1;
#X obj 248 300 -;
#X obj 328 161 r rangeH;
#X obj 361 135 r rangeL;
#X obj 142 249 lop~ 5000;
#X obj 113 206 *~ 0.999;
#X obj 112 140 delwrite~ \$0-wg 200;
#X connect 0 0 21 0;
#X connect 2 0 22 0;
#X connect 3 0 7 0;
#X connect 3 0 10 0;
#X connect 4 0 0 0;
#X connect 5 0 22 0;
#X connect 6 0 7 0;
#X connect 7 0 4 0;
#X connect 8 0 21 1;
#X connect 9 0 20 1;
#X connect 10 0 15 0;
#X connect 11 0 12 0;
#X connect 14 0 13 0;
#X connect 15 0 16 0;
#X connect 15 0 14 1;
#X connect 16 0 17 0;
#X connect 17 0 11 1;
#X connect 18 0 7 2;
#X connect 19 0 7 1;
#X connect 20 0 1 0;
#X connect 21 0 11 0;
#X connect 21 0 14 0;
#X connect 21 0 20 0;
