#N canvas 447 194 233 258 10;
#X obj 120 120 list length;
#X obj 119 143 != 0;
#X obj 86 215 list;
#X obj 119 165 sel 1;
#X obj 119 96 t l l;
#X obj 82 68 list split \$1;
#X obj 82 42 inlet;
#X obj 40 121 outlet;
#X connect 0 0 1 0;
#X connect 1 0 3 0;
#X connect 2 0 5 0;
#X connect 3 0 2 0;
#X connect 4 0 0 0;
#X connect 4 1 2 1;
#X connect 5 0 7 0;
#X connect 5 1 4 0;
#X connect 6 0 5 0;
