#N canvas 0 22 459 346 10;
#X obj 43 60 inlet;
#X obj 43 238 random;
#X obj 43 97 bang;
#X obj 108 137 * 10000;
#X obj 147 137 * 10000;
#X obj 108 59 inlet;
#X obj 147 60 inlet;
#X obj 147 161 + 1;
#X obj 147 213 -;
#X obj 43 261 +;
#X obj 43 282 / 10000;
#X obj 43 303 outlet;
#X obj 108 161 t b f;
#X obj 197 61 f \$1;
#X obj 247 61 f \$2;
#X obj 198 35 loadbang;
#X connect 0 0 2 0;
#X connect 1 0 9 0;
#X connect 2 0 1 0;
#X connect 3 0 9 1;
#X connect 3 0 12 0;
#X connect 4 0 7 0;
#X connect 5 0 3 0;
#X connect 6 0 4 0;
#X connect 7 0 8 0;
#X connect 8 0 1 1;
#X connect 9 0 10 0;
#X connect 10 0 11 0;
#X connect 12 0 8 0;
#X connect 12 1 8 1;
#X connect 13 0 3 0;
#X connect 14 0 4 0;
#X connect 15 0 13 0;
#X connect 15 0 14 0;
#X coords 0 346 1 345 85 40 0;
