#N canvas 570 171 987 900 10;
#X obj 427 182 s~ excitation;
#X obj 430 125 *~;
#X obj 376 35 noise~;
#X obj 431 345 dac~;
#X obj 574 216 bng 15 250 50 0 empty empty empty 17 7 0 10 -262144
-1 -1;
#X obj 573 237 s resetFreqs;
#X obj 557 437 s fb;
#X obj 429 237 catch~ outputL;
#X obj 489 264 catch~ outputR;
#X obj 502 550 s rangeH;
#X obj 424 551 s rangeL;
#X obj 530 89 metro 500;
#X obj 532 23 loadbang;
#X msg 531 46 1;
#X msg 519 388 5000;
#X msg 424 517 1;
#X msg 502 518 500;
#X msg 566 51 0;
#X msg 563 387 0.99;
#X obj 513 438 s co;
#X obj 77 53 wgUnit~;
#X obj 376 287 osc~ 666;
#X obj 27 53 wgUnit~;
#X obj 27 73 wgUnit~;
#X obj 27 93 wgUnit~;
#X obj 27 113 wgUnit~;
#X obj 27 133 wgUnit~;
#X obj 27 153 wgUnit~;
#X obj 27 173 wgUnit~;
#X obj 27 193 wgUnit~;
#X obj 27 213 wgUnit~;
#X obj 27 233 wgUnit~;
#X obj 77 73 wgUnit~;
#X obj 77 93 wgUnit~;
#X obj 77 113 wgUnit~;
#X obj 77 133 wgUnit~;
#X obj 77 153 wgUnit~;
#X obj 77 173 wgUnit~;
#X obj 77 193 wgUnit~;
#X obj 77 213 wgUnit~;
#X obj 77 233 wgUnit~;
#X obj 127 53 wgUnit~;
#X obj 127 73 wgUnit~;
#X obj 127 93 wgUnit~;
#X obj 127 113 wgUnit~;
#X obj 127 133 wgUnit~;
#X obj 127 153 wgUnit~;
#X obj 127 173 wgUnit~;
#X obj 127 193 wgUnit~;
#X obj 127 213 wgUnit~;
#X obj 127 233 wgUnit~;
#X obj 27 263 wgUnit~;
#X obj 27 283 wgUnit~;
#X obj 27 303 wgUnit~;
#X obj 27 323 wgUnit~;
#X obj 27 343 wgUnit~;
#X obj 27 363 wgUnit~;
#X obj 27 383 wgUnit~;
#X obj 27 403 wgUnit~;
#X obj 27 423 wgUnit~;
#X obj 27 443 wgUnit~;
#X obj 77 263 wgUnit~;
#X obj 77 283 wgUnit~;
#X obj 77 303 wgUnit~;
#X obj 77 323 wgUnit~;
#X obj 77 343 wgUnit~;
#X obj 77 363 wgUnit~;
#X obj 77 383 wgUnit~;
#X obj 77 403 wgUnit~;
#X obj 77 423 wgUnit~;
#X obj 77 443 wgUnit~;
#X obj 127 263 wgUnit~;
#X obj 127 283 wgUnit~;
#X obj 127 303 wgUnit~;
#X obj 127 323 wgUnit~;
#X obj 127 343 wgUnit~;
#X obj 127 363 wgUnit~;
#X obj 127 383 wgUnit~;
#X obj 127 403 wgUnit~;
#X obj 127 423 wgUnit~;
#X obj 127 443 wgUnit~;
#X obj 187 53 wgUnit~;
#X obj 187 73 wgUnit~;
#X obj 187 93 wgUnit~;
#X obj 187 113 wgUnit~;
#X obj 187 133 wgUnit~;
#X obj 187 153 wgUnit~;
#X obj 187 173 wgUnit~;
#X obj 187 193 wgUnit~;
#X obj 187 213 wgUnit~;
#X obj 187 233 wgUnit~;
#X obj 237 53 wgUnit~;
#X obj 237 73 wgUnit~;
#X obj 237 93 wgUnit~;
#X obj 237 113 wgUnit~;
#X obj 237 133 wgUnit~;
#X obj 237 153 wgUnit~;
#X obj 237 173 wgUnit~;
#X obj 237 193 wgUnit~;
#X obj 237 213 wgUnit~;
#X obj 237 233 wgUnit~;
#X obj 287 53 wgUnit~;
#X obj 287 73 wgUnit~;
#X obj 287 93 wgUnit~;
#X obj 287 113 wgUnit~;
#X obj 287 133 wgUnit~;
#X obj 287 153 wgUnit~;
#X obj 287 173 wgUnit~;
#X obj 287 193 wgUnit~;
#X obj 287 213 wgUnit~;
#X obj 287 233 wgUnit~;
#X obj 187 263 wgUnit~;
#X obj 187 283 wgUnit~;
#X obj 187 303 wgUnit~;
#X obj 187 323 wgUnit~;
#X obj 187 343 wgUnit~;
#X obj 187 363 wgUnit~;
#X obj 187 383 wgUnit~;
#X obj 187 403 wgUnit~;
#X obj 187 423 wgUnit~;
#X obj 187 443 wgUnit~;
#X obj 237 263 wgUnit~;
#X obj 237 283 wgUnit~;
#X obj 237 303 wgUnit~;
#X obj 237 323 wgUnit~;
#X obj 237 343 wgUnit~;
#X obj 237 363 wgUnit~;
#X obj 237 383 wgUnit~;
#X obj 237 403 wgUnit~;
#X obj 237 423 wgUnit~;
#X obj 237 443 wgUnit~;
#X obj 287 263 wgUnit~;
#X obj 287 283 wgUnit~;
#X obj 287 303 wgUnit~;
#X obj 287 323 wgUnit~;
#X obj 287 343 wgUnit~;
#X obj 287 363 wgUnit~;
#X obj 287 383 wgUnit~;
#X obj 287 403 wgUnit~;
#X obj 287 423 wgUnit~;
#X obj 287 443 wgUnit~;
#X obj 27 473 wgUnit~;
#X obj 27 493 wgUnit~;
#X obj 27 513 wgUnit~;
#X obj 27 533 wgUnit~;
#X obj 27 553 wgUnit~;
#X obj 27 573 wgUnit~;
#X obj 27 593 wgUnit~;
#X obj 27 613 wgUnit~;
#X obj 27 633 wgUnit~;
#X obj 27 653 wgUnit~;
#X obj 77 473 wgUnit~;
#X obj 77 493 wgUnit~;
#X obj 77 513 wgUnit~;
#X obj 77 533 wgUnit~;
#X obj 77 553 wgUnit~;
#X obj 77 573 wgUnit~;
#X obj 77 593 wgUnit~;
#X obj 77 613 wgUnit~;
#X obj 77 633 wgUnit~;
#X obj 77 653 wgUnit~;
#X obj 127 473 wgUnit~;
#X obj 127 493 wgUnit~;
#X obj 127 513 wgUnit~;
#X obj 127 533 wgUnit~;
#X obj 127 553 wgUnit~;
#X obj 127 573 wgUnit~;
#X obj 127 593 wgUnit~;
#X obj 127 613 wgUnit~;
#X obj 127 633 wgUnit~;
#X obj 127 653 wgUnit~;
#X obj 27 683 wgUnit~;
#X obj 27 703 wgUnit~;
#X obj 27 723 wgUnit~;
#X obj 27 743 wgUnit~;
#X obj 27 763 wgUnit~;
#X obj 27 783 wgUnit~;
#X obj 27 803 wgUnit~;
#X obj 27 823 wgUnit~;
#X obj 27 843 wgUnit~;
#X obj 27 863 wgUnit~;
#X obj 77 683 wgUnit~;
#X obj 77 703 wgUnit~;
#X obj 77 723 wgUnit~;
#X obj 77 743 wgUnit~;
#X obj 77 763 wgUnit~;
#X obj 77 783 wgUnit~;
#X obj 77 803 wgUnit~;
#X obj 77 823 wgUnit~;
#X obj 77 843 wgUnit~;
#X obj 77 863 wgUnit~;
#X obj 127 683 wgUnit~;
#X obj 127 703 wgUnit~;
#X obj 127 723 wgUnit~;
#X obj 127 743 wgUnit~;
#X obj 127 763 wgUnit~;
#X obj 127 783 wgUnit~;
#X obj 127 803 wgUnit~;
#X obj 127 823 wgUnit~;
#X obj 127 843 wgUnit~;
#X obj 127 863 wgUnit~;
#X obj 187 473 wgUnit~;
#X obj 187 493 wgUnit~;
#X obj 187 513 wgUnit~;
#X obj 187 533 wgUnit~;
#X obj 187 553 wgUnit~;
#X obj 187 573 wgUnit~;
#X obj 187 593 wgUnit~;
#X obj 187 613 wgUnit~;
#X obj 187 633 wgUnit~;
#X obj 187 653 wgUnit~;
#X obj 237 473 wgUnit~;
#X obj 237 493 wgUnit~;
#X obj 237 513 wgUnit~;
#X obj 237 533 wgUnit~;
#X obj 237 553 wgUnit~;
#X obj 237 573 wgUnit~;
#X obj 237 593 wgUnit~;
#X obj 237 613 wgUnit~;
#X obj 237 633 wgUnit~;
#X obj 237 653 wgUnit~;
#X obj 287 473 wgUnit~;
#X obj 287 493 wgUnit~;
#X obj 287 513 wgUnit~;
#X obj 287 533 wgUnit~;
#X obj 287 553 wgUnit~;
#X obj 287 573 wgUnit~;
#X obj 287 593 wgUnit~;
#X obj 287 613 wgUnit~;
#X obj 287 633 wgUnit~;
#X obj 287 653 wgUnit~;
#X obj 187 683 wgUnit~;
#X obj 187 703 wgUnit~;
#X obj 187 723 wgUnit~;
#X obj 187 743 wgUnit~;
#X obj 187 763 wgUnit~;
#X obj 187 783 wgUnit~;
#X obj 187 803 wgUnit~;
#X obj 187 823 wgUnit~;
#X obj 187 843 wgUnit~;
#X obj 187 863 wgUnit~;
#X obj 237 683 wgUnit~;
#X obj 237 703 wgUnit~;
#X obj 237 723 wgUnit~;
#X obj 237 743 wgUnit~;
#X obj 237 763 wgUnit~;
#X obj 237 783 wgUnit~;
#X obj 237 803 wgUnit~;
#X obj 237 823 wgUnit~;
#X obj 237 843 wgUnit~;
#X obj 237 863 wgUnit~;
#X obj 287 683 wgUnit~;
#X obj 287 703 wgUnit~;
#X obj 287 723 wgUnit~;
#X obj 287 743 wgUnit~;
#X obj 287 763 wgUnit~;
#X obj 287 783 wgUnit~;
#X obj 287 803 wgUnit~;
#X obj 287 823 wgUnit~;
#X obj 287 843 wgUnit~;
#X obj 287 863 wgUnit~;
#X obj 665 45 wgUnit~;
#X obj 665 65 wgUnit~;
#X obj 665 85 wgUnit~;
#X obj 665 105 wgUnit~;
#X obj 665 125 wgUnit~;
#X obj 665 145 wgUnit~;
#X obj 665 165 wgUnit~;
#X obj 665 185 wgUnit~;
#X obj 665 205 wgUnit~;
#X obj 665 225 wgUnit~;
#X obj 715 45 wgUnit~;
#X obj 715 65 wgUnit~;
#X obj 715 85 wgUnit~;
#X obj 715 105 wgUnit~;
#X obj 715 125 wgUnit~;
#X obj 715 145 wgUnit~;
#X obj 715 165 wgUnit~;
#X obj 715 185 wgUnit~;
#X obj 715 205 wgUnit~;
#X obj 715 225 wgUnit~;
#X obj 765 45 wgUnit~;
#X obj 765 65 wgUnit~;
#X obj 765 85 wgUnit~;
#X obj 765 105 wgUnit~;
#X obj 765 125 wgUnit~;
#X obj 765 145 wgUnit~;
#X obj 765 165 wgUnit~;
#X obj 765 185 wgUnit~;
#X obj 765 205 wgUnit~;
#X obj 765 225 wgUnit~;
#X obj 665 255 wgUnit~;
#X obj 665 275 wgUnit~;
#X obj 665 295 wgUnit~;
#X obj 665 315 wgUnit~;
#X obj 665 335 wgUnit~;
#X obj 665 355 wgUnit~;
#X obj 665 375 wgUnit~;
#X obj 665 395 wgUnit~;
#X obj 665 415 wgUnit~;
#X obj 665 435 wgUnit~;
#X obj 715 255 wgUnit~;
#X obj 715 275 wgUnit~;
#X obj 715 295 wgUnit~;
#X obj 715 315 wgUnit~;
#X obj 715 335 wgUnit~;
#X obj 715 355 wgUnit~;
#X obj 715 375 wgUnit~;
#X obj 715 395 wgUnit~;
#X obj 715 415 wgUnit~;
#X obj 715 435 wgUnit~;
#X obj 765 255 wgUnit~;
#X obj 765 275 wgUnit~;
#X obj 765 295 wgUnit~;
#X obj 765 315 wgUnit~;
#X obj 765 335 wgUnit~;
#X obj 765 355 wgUnit~;
#X obj 765 375 wgUnit~;
#X obj 765 395 wgUnit~;
#X obj 765 415 wgUnit~;
#X obj 765 435 wgUnit~;
#X obj 825 45 wgUnit~;
#X obj 825 65 wgUnit~;
#X obj 825 85 wgUnit~;
#X obj 825 105 wgUnit~;
#X obj 825 125 wgUnit~;
#X obj 825 145 wgUnit~;
#X obj 825 165 wgUnit~;
#X obj 825 185 wgUnit~;
#X obj 825 205 wgUnit~;
#X obj 825 225 wgUnit~;
#X obj 875 45 wgUnit~;
#X obj 875 65 wgUnit~;
#X obj 875 85 wgUnit~;
#X obj 875 105 wgUnit~;
#X obj 875 125 wgUnit~;
#X obj 875 145 wgUnit~;
#X obj 875 165 wgUnit~;
#X obj 875 185 wgUnit~;
#X obj 875 205 wgUnit~;
#X obj 875 225 wgUnit~;
#X obj 925 45 wgUnit~;
#X obj 925 65 wgUnit~;
#X obj 925 85 wgUnit~;
#X obj 925 105 wgUnit~;
#X obj 925 125 wgUnit~;
#X obj 925 145 wgUnit~;
#X obj 925 165 wgUnit~;
#X obj 925 185 wgUnit~;
#X obj 925 205 wgUnit~;
#X obj 925 225 wgUnit~;
#X obj 825 255 wgUnit~;
#X obj 825 275 wgUnit~;
#X obj 825 295 wgUnit~;
#X obj 825 315 wgUnit~;
#X obj 825 335 wgUnit~;
#X obj 825 355 wgUnit~;
#X obj 825 375 wgUnit~;
#X obj 825 395 wgUnit~;
#X obj 825 415 wgUnit~;
#X obj 825 435 wgUnit~;
#X obj 875 255 wgUnit~;
#X obj 875 275 wgUnit~;
#X obj 875 295 wgUnit~;
#X obj 875 315 wgUnit~;
#X obj 875 335 wgUnit~;
#X obj 875 355 wgUnit~;
#X obj 875 375 wgUnit~;
#X obj 875 395 wgUnit~;
#X obj 875 415 wgUnit~;
#X obj 875 435 wgUnit~;
#X obj 925 255 wgUnit~;
#X obj 925 275 wgUnit~;
#X obj 925 295 wgUnit~;
#X obj 925 315 wgUnit~;
#X obj 925 335 wgUnit~;
#X obj 925 355 wgUnit~;
#X obj 925 375 wgUnit~;
#X obj 925 395 wgUnit~;
#X obj 925 415 wgUnit~;
#X obj 925 435 wgUnit~;
#X obj 665 465 wgUnit~;
#X obj 665 485 wgUnit~;
#X obj 665 505 wgUnit~;
#X obj 665 525 wgUnit~;
#X obj 665 545 wgUnit~;
#X obj 665 565 wgUnit~;
#X obj 665 585 wgUnit~;
#X obj 665 605 wgUnit~;
#X obj 665 625 wgUnit~;
#X obj 665 645 wgUnit~;
#X obj 715 465 wgUnit~;
#X obj 715 485 wgUnit~;
#X obj 715 505 wgUnit~;
#X obj 715 525 wgUnit~;
#X obj 715 545 wgUnit~;
#X obj 715 565 wgUnit~;
#X obj 715 585 wgUnit~;
#X obj 715 605 wgUnit~;
#X obj 715 625 wgUnit~;
#X obj 715 645 wgUnit~;
#X obj 765 465 wgUnit~;
#X obj 765 485 wgUnit~;
#X obj 765 505 wgUnit~;
#X obj 765 525 wgUnit~;
#X obj 765 545 wgUnit~;
#X obj 765 565 wgUnit~;
#X obj 765 585 wgUnit~;
#X obj 765 605 wgUnit~;
#X obj 765 625 wgUnit~;
#X obj 765 645 wgUnit~;
#X obj 665 675 wgUnit~;
#X obj 665 695 wgUnit~;
#X obj 665 715 wgUnit~;
#X obj 665 735 wgUnit~;
#X obj 665 755 wgUnit~;
#X obj 665 775 wgUnit~;
#X obj 665 795 wgUnit~;
#X obj 665 815 wgUnit~;
#X obj 665 835 wgUnit~;
#X obj 665 855 wgUnit~;
#X obj 715 675 wgUnit~;
#X obj 715 695 wgUnit~;
#X obj 715 715 wgUnit~;
#X obj 715 735 wgUnit~;
#X obj 715 755 wgUnit~;
#X obj 715 775 wgUnit~;
#X obj 715 795 wgUnit~;
#X obj 715 815 wgUnit~;
#X obj 715 835 wgUnit~;
#X obj 715 855 wgUnit~;
#X obj 765 675 wgUnit~;
#X obj 765 695 wgUnit~;
#X obj 765 715 wgUnit~;
#X obj 765 735 wgUnit~;
#X obj 765 755 wgUnit~;
#X obj 765 775 wgUnit~;
#X obj 765 795 wgUnit~;
#X obj 765 815 wgUnit~;
#X obj 765 835 wgUnit~;
#X obj 765 855 wgUnit~;
#X obj 825 465 wgUnit~;
#X obj 825 485 wgUnit~;
#X obj 825 505 wgUnit~;
#X obj 825 525 wgUnit~;
#X obj 825 545 wgUnit~;
#X obj 825 565 wgUnit~;
#X obj 825 585 wgUnit~;
#X obj 825 605 wgUnit~;
#X obj 825 625 wgUnit~;
#X obj 825 645 wgUnit~;
#X obj 875 465 wgUnit~;
#X obj 875 485 wgUnit~;
#X obj 875 505 wgUnit~;
#X obj 875 525 wgUnit~;
#X obj 875 545 wgUnit~;
#X obj 875 565 wgUnit~;
#X obj 875 585 wgUnit~;
#X obj 875 605 wgUnit~;
#X obj 875 625 wgUnit~;
#X obj 875 645 wgUnit~;
#X obj 925 465 wgUnit~;
#X obj 925 485 wgUnit~;
#X obj 925 505 wgUnit~;
#X obj 925 525 wgUnit~;
#X obj 925 545 wgUnit~;
#X obj 925 565 wgUnit~;
#X obj 925 585 wgUnit~;
#X obj 925 605 wgUnit~;
#X obj 925 625 wgUnit~;
#X obj 925 645 wgUnit~;
#X obj 825 675 wgUnit~;
#X obj 825 695 wgUnit~;
#X obj 825 715 wgUnit~;
#X obj 825 735 wgUnit~;
#X obj 825 755 wgUnit~;
#X obj 825 775 wgUnit~;
#X obj 825 795 wgUnit~;
#X obj 825 815 wgUnit~;
#X obj 825 835 wgUnit~;
#X obj 825 855 wgUnit~;
#X obj 875 675 wgUnit~;
#X obj 875 695 wgUnit~;
#X obj 875 715 wgUnit~;
#X obj 875 735 wgUnit~;
#X obj 875 755 wgUnit~;
#X obj 875 775 wgUnit~;
#X obj 875 795 wgUnit~;
#X obj 875 815 wgUnit~;
#X obj 875 835 wgUnit~;
#X obj 875 855 wgUnit~;
#X obj 925 675 wgUnit~;
#X obj 925 695 wgUnit~;
#X obj 925 715 wgUnit~;
#X obj 925 735 wgUnit~;
#X obj 925 755 wgUnit~;
#X obj 925 775 wgUnit~;
#X obj 925 795 wgUnit~;
#X obj 925 815 wgUnit~;
#X obj 925 835 wgUnit~;
#X obj 925 855 wgUnit~;
#X obj 479 127 noise~;
#X obj 479 157 *~ 0.1;
#X obj 428 320 *~ 0.01;
#X obj 471 323 *~ 0.01;
#X obj 445 103 line~;
#X msg 450 77 1 \, 0 10;
#X connect 1 0 0 0;
#X connect 2 0 1 0;
#X connect 4 0 5 0;
#X connect 7 0 503 0;
#X connect 8 0 504 0;
#X connect 11 0 506 0;
#X connect 12 0 13 0;
#X connect 13 0 11 0;
#X connect 14 0 19 0;
#X connect 15 0 10 0;
#X connect 16 0 9 0;
#X connect 17 0 11 0;
#X connect 18 0 6 0;
#X connect 21 0 503 0;
#X connect 21 0 504 0;
#X connect 501 0 502 0;
#X connect 503 0 3 0;
#X connect 504 0 3 1;
#X connect 505 0 1 1;
#X connect 506 0 505 0;
