#N canvas 129 123 634 677 10;
#X obj 271 542 *~;
#X obj 255 582 throw~ outputL;
#X obj 351 581 throw~ outputR;
#X obj 351 542 *~;
#X msg 375 464 1 \$1;
#X obj 374 488 -;
#X obj 419 272 r fb;
#X obj 310 211 loadbang;
#X obj 310 237 f \$2;
#X obj 457 275 r co;
#X obj 456 401 loadbang;
#X obj 456 433 f \$3;
#X obj 264 58 route \$1;
#X obj 264 34 r wg_params;
#X obj 261 151 lop~ 20;
#X obj 226 287 *~;
#X obj 261 126 sig~;
#X obj 228 255 clip~ 0 1;
#X obj 442 96 phasor~;
#X obj 534 66 f \$2;
#X obj 528 46 loadbang;
#X obj 533 122 /;
#X msg 534 95 1000 \$1;
#X obj 442 121 *~ 30;
#X obj 441 154 tabread4~ wavetable;
#X obj 443 180 *~ 0.1;
#X obj 263 94 clip 0 1;
#X obj 192 225 *~;
#X obj 201 128 sig~;
#X obj 158 73 f \$1;
#X obj 156 36 loadbang;
#N canvas 94 354 871 363 block 0;
#X obj 60 41 inlet~;
#X obj 53 252 outlet~;
#X obj 88 197 lop~ 5000;
#X obj 59 154 *~ 0.999;
#X obj 58 88 delwrite~ \$0-wg 200;
#X obj 246 137 inlet fb;
#X obj 316 137 inlet co;
#N canvas 0 22 450 278 (subpatch) 0;
#X array \$0-fb 16 float 0;
#X coords 0 1 15 -1 10 10 1 0 0;
#X restore 419 43 graph;
#X obj 75 63 tabreceive~ \$0-fb;
#X obj 212 236 tabsend~ \$0-fb;
#X obj 340 27 block~ 8;
#X obj 209 211 clip~ -0.9 0.9;
#X obj 59 128 vd~ \$0-wg;
#X obj 196 105 inlet~ period;
#X connect 0 0 4 0;
#X connect 2 0 11 0;
#X connect 3 0 2 0;
#X connect 3 0 1 0;
#X connect 5 0 3 1;
#X connect 6 0 2 1;
#X connect 8 0 4 0;
#X connect 11 0 9 0;
#X connect 12 0 3 0;
#X connect 13 0 12 0;
#X restore 276 352 pd block;
#X obj 310 263 sig~;
#X obj 441 20 sig~;
#X obj 372 41 *~;
#X obj 360 71 s~ \$0-wat;
#X obj 370 111 r~ \$0-wat;
#X obj 361 145 *~;
#X obj 360 177 *~;
#X obj 442 66 +~;
#X obj 392 228 r~ \$0-wat;
#X obj 376 249 *~;
#X obj 395 187 sig~;
#X obj 309 303 *~;
#X obj 442 355 -~;
#X obj 456 327 bp~ 5000 1;
#X text 217 58 12;
#X obj 225 189 *~ \$4;
#X obj 201 102 > 84;
#X obj 127 161 *~;
#X obj 88 124 r~ depthWat;
#X obj 165 131 sig~;
#X obj 165 105 < 84;
#X connect 0 0 1 0;
#X connect 3 0 2 0;
#X connect 4 0 5 0;
#X connect 5 0 0 1;
#X connect 6 0 31 2;
#X connect 7 0 8 0;
#X connect 8 0 32 0;
#X connect 9 0 31 3;
#X connect 10 0 11 0;
#X connect 11 0 4 0;
#X connect 11 0 3 1;
#X connect 12 0 26 0;
#X connect 13 0 12 0;
#X connect 14 0 38 1;
#X connect 14 0 47 0;
#X connect 15 0 31 0;
#X connect 16 0 14 0;
#X connect 17 0 15 1;
#X connect 18 0 23 0;
#X connect 19 0 22 0;
#X connect 19 0 42 0;
#X connect 20 0 19 0;
#X connect 21 0 33 0;
#X connect 22 0 21 0;
#X connect 23 0 24 0;
#X connect 24 0 25 0;
#X connect 25 0 15 0;
#X connect 26 0 16 0;
#X connect 27 0 17 0;
#X connect 28 0 27 1;
#X connect 29 0 48 0;
#X connect 29 0 52 0;
#X connect 30 0 29 0;
#X connect 31 0 0 0;
#X connect 31 0 3 0;
#X connect 31 0 35 0;
#X connect 32 0 43 0;
#X connect 33 0 34 0;
#X connect 33 0 37 0;
#X connect 33 0 39 0;
#X connect 36 0 37 1;
#X connect 37 0 38 0;
#X connect 39 0 18 0;
#X connect 40 0 41 1;
#X connect 41 0 44 0;
#X connect 41 0 45 0;
#X connect 42 0 41 0;
#X connect 43 0 31 1;
#X connect 44 0 43 1;
#X connect 45 0 44 1;
#X connect 47 0 27 0;
#X connect 48 0 28 0;
#X connect 49 0 27 1;
#X connect 50 0 49 0;
#X connect 51 0 49 1;
#X connect 52 0 51 0;
