#N canvas 553 493 639 606 10;
#X obj 185 26 inlet;
#X obj 200 422 outlet;
#X obj 183 167 % 2;
#X obj 183 111 f;
#X obj 209 109 + 1;
#X obj 319 262 f;
#X obj 183 188 == 1;
#X obj 183 210 sel 0 1;
#X obj 252 261 f;
#X obj 186 81 t b f;
#X obj 270 422 outlet;
#X connect 0 0 9 0;
#X connect 2 0 6 0;
#X connect 3 0 4 0;
#X connect 4 0 3 1;
#X connect 4 0 2 0;
#X connect 5 0 10 0;
#X connect 6 0 7 0;
#X connect 7 0 8 0;
#X connect 7 1 5 0;
#X connect 8 0 1 0;
#X connect 9 0 3 0;
#X connect 9 1 5 1;
#X connect 9 1 8 1;
