#N canvas 952 370 541 309 10;
#X obj 66 59 receive matrix_x;
#X obj 66 229 tabwrite matrix_x;
#X obj 66 87 listfunnel;
#X obj 233 165 tabread4~ matrix_x;
#N canvas 0 22 1052 522 (subpatch) 0;
#X array matrix_x 256 float 0;
#X coords 0 1 255 -1 100 100 1 0 0;
#X restore 401 45 graph;
#X obj 233 69 phasor~ 60;
#X obj 234 106 *~ 256;
#X obj 233 216 dac~;
#X obj 233 192 *~ 0.5;
#X msg 45 25 0 1 -1 1 -1;
#X msg 13 128 \$2 \$1;
#X connect 0 0 2 0;
#X connect 2 0 10 0;
#X connect 3 0 8 0;
#X connect 5 0 6 0;
#X connect 6 0 3 0;
#X connect 8 0 7 0;
#X connect 8 0 7 1;
#X connect 9 0 2 0;
#X connect 10 0 1 0;
