#N canvas 916 330 968 528 10;
#X obj -71 74 metro 100;
#X obj -72 269 ead~ 1 10;
#X obj 87 249 +;
#X obj -87 399 *~;
#X obj -72 373 *~;
#X obj -13 178 r gran.attack.min;
#X obj -42 328 r gran.density;
#X obj 87 271 s \$0-grainLength;
#X obj -20 52 r \$0-grainLength;
#X obj -71 95 s \$0-newVal;
#X obj -72 133 r \$0-newVal;
#X obj 22 198 r gran.attack.max;
#X obj 142 178 r gran.decay.min;
#X obj 183 198 r gran.decay.max;
#X obj -71 31 r gran.numStreams;
#X obj -87 421 throw~ granOutput;
#X obj -57 350 < 50;
#X obj -47 223 randgen 1 10;
#X obj 102 223 randgen 10 100;
#X obj -57 305 randgen 0 100;
#X obj -469 369 tabread4~ granBuff;
#X obj -354 167 r granBuffLength;
#X obj -354 209 -;
#X obj -441 255 randgen 0 44100;
#X obj -469 347 line~;
#X obj -432 275 +;
#X obj -469 300 pack f f f;
#X msg -469 322 \$2 \, \$3 \$1;
#X obj -430 145 * 44.1;
#X obj -469 105 r \$0-grainLength;
#X obj -430 165 t f f;
#X obj -344 188 t b f;
#X obj -389 234 *;
#X obj -354 234 *;
#X obj -313 209 r gran.buffpos.min;
#X obj -198 209 r gran.buffpos.max;
#X obj -469 234 *;
#X obj -627 171 randgen 0.5 2;
#X obj -590 129 r gran.speed.min;
#X obj -580 149 r gran.speed.max;
#X obj -627 106 r \$0-newVal;
#X obj -469 125 t f b f;
#X obj -72 154 t b b b b;
#X obj -71 52 >= \$1;
#X connect 0 0 9 0;
#X connect 1 0 4 0;
#X connect 2 0 7 0;
#X connect 3 0 15 0;
#X connect 4 0 3 1;
#X connect 5 0 17 1;
#X connect 6 0 16 1;
#X connect 8 0 0 1;
#X connect 10 0 42 0;
#X connect 11 0 17 2;
#X connect 12 0 18 1;
#X connect 13 0 18 2;
#X connect 14 0 43 0;
#X connect 16 0 4 1;
#X connect 17 0 2 0;
#X connect 17 0 1 1;
#X connect 18 0 2 1;
#X connect 18 0 1 2;
#X connect 19 0 16 0;
#X connect 20 0 3 0;
#X connect 21 0 22 0;
#X connect 22 0 32 0;
#X connect 22 0 33 0;
#X connect 23 0 25 0;
#X connect 23 0 26 1;
#X connect 24 0 20 0;
#X connect 25 0 26 2;
#X connect 26 0 27 0;
#X connect 27 0 24 0;
#X connect 28 0 30 0;
#X connect 29 0 41 0;
#X connect 30 0 25 1;
#X connect 30 1 31 0;
#X connect 31 0 22 0;
#X connect 31 1 22 1;
#X connect 32 0 23 1;
#X connect 33 0 23 2;
#X connect 34 0 32 1;
#X connect 35 0 33 1;
#X connect 36 0 26 0;
#X connect 37 0 36 1;
#X connect 38 0 37 1;
#X connect 39 0 37 2;
#X connect 40 0 37 0;
#X connect 41 0 36 0;
#X connect 41 1 23 0;
#X connect 41 2 28 0;
#X connect 42 0 1 0;
#X connect 42 1 17 0;
#X connect 42 2 18 0;
#X connect 42 3 19 0;
#X connect 43 0 0 0;
