#N canvas 374 42 886 780 10;
#X obj 427 182 s~ excitation;
#X obj 430 125 *~;
#X obj 376 35 noise~;
#X obj 391 461 dac~;
#X obj 574 216 bng 15 250 50 0 empty empty empty 17 7 0 10 -262144
-1 -1;
#X obj 573 237 s resetFreqs;
#X obj 557 437 s fb;
#X obj 429 237 catch~ outputL;
#X obj 489 264 catch~ outputR;
#X obj 502 550 s rangeH;
#X obj 424 551 s rangeL;
#X obj 532 23 loadbang;
#X msg 531 46 1;
#X msg 424 517 1;
#X msg 502 518 500;
#X msg 566 51 0;
#X obj 513 438 s co;
#X obj 479 127 noise~;
#X obj 479 157 *~ 0.1;
#X obj 445 103 line~;
#X msg 450 77 1 \, 0 10;
#X obj 530 89 metro 50;
#X obj 183 132 r~ excitation;
#X floatatom 157 212 5 0 0 0 - - -;
#X obj 119 188 hsl 128 15 0 1 0 0 empty empty empty -2 -8 0 10 -262144
-1 -1 0 1;
#X obj 79 276 pack f f;
#X obj 88 211 t b f;
#X obj 25 23 wgBank_gen;
#X msg 86 121 1 \, 0 10;
#X obj 86 146 line;
#X obj 32 146 loadbang;
#X obj 60 241 tommygun 255;
#X msg 68 173 0;
#X obj 552 160 print hello;
#X msg 550 135 test;
#X msg 32 168 0.1;
#X obj 168 62 change;
#X obj 167 92 * 0.1;
#X obj 234 75 tgl 15 0 empty empty empty 17 7 0 10 -262144 -1 -1 0
1;
#X obj -6 69 r testing2;
#X obj 33 361 r params;
#X obj 33 472 s wg_params;
#X obj 538 348 loadbang;
#X obj 60 591 tabwrite wavetable;
#N canvas 0 50 450 278 (subpatch) 0;
#X array wavetable 30 float 0;
#X coords 0 1 29 -1 100 100 1 0 0;
#X restore 441 648 graph;
#X obj 139 434 unpack f f;
#X obj 171 534 t b f;
#X obj 60 515 f;
#X obj 138 488 moses 0;
#X obj 244 422 - 33;
#X obj 243 451 moses 0;
#X floatatom 246 387 5 0 0 0 - - -;
#X floatatom 268 511 5 0 0 0 - - -;
#X obj 276 473 moses 30;
#X obj 171 510 moses 30;
#X obj 182 276 list;
#X obj 33 438 listgroup 2;
#X obj 218 579 osc~ 440;
#X obj 140 406 listgroup 2;
#X obj 66 548 clip 0 1;
#X obj 139 460 - 129;
#X obj 438 288 hip~ 1;
#X obj 502 294 hip~ 1;
#X obj 435 349 *~ 0.5;
#X obj 487 355 *~ 0.5;
#X obj 653 485 s~ fScale;
#X floatatom 652 448 5 0 0 0 - - -;
#X obj 708 378 loadbang;
#X msg 714 400 1;
#X obj 717 447 sig~ 0.1;
#X obj 778 440 osc~ 0.5;
#X msg 563 387 0.99999;
#X msg 520 388 100;
#X obj 429 318 clip~ -1 1;
#X obj 494 324 clip~ -1 1;
#X obj 689 707 s~ depthWat;
#X obj 689 648 sig~;
#X obj 688 671 lop~ 5;
#X obj 689 545 r depthScroll;
#X obj 689 566 / 500;
#X obj 687 600 abs;
#X obj 691 625 clip 0 1;
#X obj 301 159 r colormode;
#X obj 302 184 sel 0 1 2 3 4 5 6;
#X obj 393 385 lop~ 20000;
#X obj 318 385 lop~ 20000;
#X obj 436 429 == 5;
#X obj 435 451 * 4900;
#X obj 438 477 + 100;
#X obj 238 280 == 1;
#X obj 240 348 -;
#X msg 242 325 20000 \$1;
#X obj 237 302 * 19500;
#X obj 323 216 == 5;
#X obj 312 242 sel 0 1;
#X obj 312 421 hip~ 1;
#X obj 359 420 hip~ 1;
#X msg 363 267 5000;
#X obj 341 320 line;
#X msg 343 300 \$1 100;
#X msg 323 268 5;
#X connect 1 0 0 0;
#X connect 2 0 1 0;
#X connect 4 0 5 0;
#X connect 7 0 61 0;
#X connect 8 0 62 0;
#X connect 11 0 12 0;
#X connect 12 0 21 0;
#X connect 13 0 10 0;
#X connect 14 0 9 0;
#X connect 15 0 21 0;
#X connect 17 0 18 0;
#X connect 19 0 1 1;
#X connect 20 0 19 0;
#X connect 21 0 20 0;
#X connect 21 0 28 0;
#X connect 24 0 23 0;
#X connect 24 0 26 0;
#X connect 26 0 31 0;
#X connect 26 1 25 1;
#X connect 28 0 29 0;
#X connect 30 0 35 0;
#X connect 31 0 25 0;
#X connect 32 0 26 0;
#X connect 34 0 33 0;
#X connect 35 0 26 0;
#X connect 36 0 37 0;
#X connect 37 0 26 0;
#X connect 38 0 37 0;
#X connect 39 0 26 0;
#X connect 40 0 56 0;
#X connect 40 0 58 0;
#X connect 42 0 72 0;
#X connect 42 0 71 0;
#X connect 45 0 60 0;
#X connect 45 1 47 1;
#X connect 46 0 47 0;
#X connect 46 1 43 1;
#X connect 47 0 59 0;
#X connect 48 1 54 0;
#X connect 49 0 50 0;
#X connect 50 1 53 0;
#X connect 51 0 49 0;
#X connect 53 0 52 0;
#X connect 54 0 46 0;
#X connect 56 0 41 0;
#X connect 58 0 45 0;
#X connect 59 0 43 0;
#X connect 60 0 48 0;
#X connect 61 0 73 0;
#X connect 62 0 74 0;
#X connect 63 0 84 0;
#X connect 64 0 85 0;
#X connect 66 0 65 0;
#X connect 69 0 65 0;
#X connect 71 0 6 0;
#X connect 72 0 16 0;
#X connect 73 0 63 0;
#X connect 74 0 64 0;
#X connect 76 0 77 0;
#X connect 77 0 75 0;
#X connect 78 0 79 0;
#X connect 79 0 80 0;
#X connect 80 0 81 0;
#X connect 81 0 76 0;
#X connect 82 0 83 0;
#X connect 82 0 89 0;
#X connect 82 0 93 0;
#X connect 84 0 96 0;
#X connect 85 0 95 0;
#X connect 86 0 87 0;
#X connect 87 0 88 0;
#X connect 88 0 16 0;
#X connect 89 0 92 0;
#X connect 90 0 85 1;
#X connect 90 0 84 1;
#X connect 91 0 90 0;
#X connect 92 0 91 0;
#X connect 93 0 94 0;
#X connect 94 0 100 0;
#X connect 94 1 97 0;
#X connect 95 0 3 0;
#X connect 96 0 3 1;
#X connect 97 0 99 0;
#X connect 98 0 95 1;
#X connect 98 0 96 1;
#X connect 99 0 98 0;
#X connect 100 0 99 0;
